<?xml version="1.0" encoding="utf-8"?>
<!-- Generator: Adobe Illustrator 27.3.1, SVG Export Plug-In . SVG Version: 6.00 Build 0)  -->
<svg version="1.1" id="Layer_1" xmlns="http://www.w3.org/2000/svg" xmlns:xlink="http://www.w3.org/1999/xlink" x="0px" y="0px"
	 viewBox="0 0 576 512" style="enable-background:new 0 0 576 512;" xml:space="preserve">
<style type="text/css">
	.st0{fill:url(#SVGID_1_);}
</style>
<linearGradient id="SVGID_1_" gradientUnits="userSpaceOnUse" x1="0" y1="256" x2="576" y2="256">
	<stop  offset="0" style="stop-color:#CC98DA"/>
	<stop  offset="1" style="stop-color:#5B6CF9"/>
</linearGradient>
<path class="st0" d="M349.7,138.3c-3.1-3.1-8.2-3.1-11.3,0s-3.1,8.2,0,11.3l58.3,58.4l-58.3,58.3c-3.1,3.1-3.1,8.2,0,11.3
	c1.5,1.6,2.7,2.4,5.6,2.4s4.1-0.8,5.7-2.3l64-64c3.1-3.1,3.1-8.2,0-11.3L349.7,138.3z M237.7,138.3c-3.1-3.1-8.2-3.1-11.3,0l-64,64
	c-3.1,3.1-3.1,8.2,0,11.3l64,64c1.5,1.6,2.7,2.4,5.6,2.4s4.1-0.8,5.7-2.3c3.1-3.1,3.1-8.2,0-11.3L179.3,208l58.3-58.3
	C240.8,146.5,240.8,141.5,237.7,138.3z M64,352h448V64H64V352z M80,80h416v256H80V80z M528,0H48C21.5,0,0,21.5,0,48v320
	c0,26.5,21.5,48,48,48h180.9l-26.7,80H136c-4.4,0-8,3.6-8,8s3.6,8,8,8h304c4.4,0,8-3.6,8-8s-3.6-8-8-8h-66.2l-26.7-80H528
	c26.5,0,48-21.5,48-48V48C576,21.5,554.5,0,528,0z M356.9,496H219.1l26.7-80h84.5L356.9,496z M560,368c0,17.6-14.4,32-32,32H48
	c-17.6,0-32-14.4-32-32V48c0-17.6,14.4-32,32-32h480c17.6,0,32,14.4,32,32V368z"/>
</svg>
