<?xml version="1.0" encoding="utf-8"?>
<!-- Generator: Adobe Illustrator 27.3.1, SVG Export Plug-In . SVG Version: 6.00 Build 0)  -->
<svg version="1.1" id="Layer_1" xmlns="http://www.w3.org/2000/svg" xmlns:xlink="http://www.w3.org/1999/xlink" x="0px" y="0px"
	 viewBox="0 0 512 512" style="enable-background:new 0 0 512 512;" xml:space="preserve">
<style type="text/css">
	.st0{fill:url(#SVGID_1_);}
</style>
<linearGradient id="SVGID_1_" gradientUnits="userSpaceOnUse" x1="0" y1="256" x2="512" y2="256">
	<stop  offset="0" style="stop-color:#CC98DA"/>
	<stop  offset="1" style="stop-color:#5B6CF9"/>
</linearGradient>
<path class="st0" d="M64,96c-17.7,0-32,14.3-32,32v39.9l195.6,143.4c16.9,12.4,39.9,12.4,56.8,0L480,167.9V128c0-17.7-14.3-32-32-32
	H64z M32,207.6V384c0,17.7,14.3,32,32,32h384c17.7,0,32-14.3,32-32V207.6L303.3,337.1c-28.2,20.6-66.5,20.6-94.6,0L32,207.6z M0,128
	c0-35.3,28.7-64,64-64h384c35.3,0,64,28.7,64,64v256c0,35.3-28.7,64-64,64H64c-35.3,0-64-28.7-64-64V128z"/>
</svg>
