<?xml version="1.0" encoding="utf-8"?>
<!-- Generator: Adobe Illustrator 27.3.1, SVG Export Plug-In . SVG Version: 6.00 Build 0)  -->
<svg version="1.1" id="Layer_1" xmlns="http://www.w3.org/2000/svg" xmlns:xlink="http://www.w3.org/1999/xlink" x="0px" y="0px"
	 viewBox="0 0 448 512" style="enable-background:new 0 0 448 512;" xml:space="preserve">
<style type="text/css">
	.st0{fill:url(#SVGID_1_);}
</style>
<linearGradient id="SVGID_1_" gradientUnits="userSpaceOnUse" x1="-2.967131e-02" y1="256" x2="447.9957" y2="256">
	<stop  offset="0" style="stop-color:#FFFFFF"/>
	<stop  offset="0" style="stop-color:#C7B3CC"/>
	<stop  offset="0" style="stop-color:#CC98DA"/>
	<stop  offset="1" style="stop-color:#5B6CF9"/>
	<stop  offset="1" style="stop-color:#133A94"/>
	<stop  offset="1" style="stop-color:#268AB2"/>
	<stop  offset="1" style="stop-color:#BBC7DC"/>
	<stop  offset="1" style="stop-color:#133A94"/>
</linearGradient>
<path class="st0" d="M436.3,395.1L288,163.2V16h24c4.4,0,8-3.6,8-8s-3.6-8-8.9-8H136c-4.4,0-8,3.6-8,8s3.6,8,8,8h24v147.2
	l-148.4,232c-14.8,23.9-15.5,53-1.8,77.6C23.5,497.3,48.4,512,76.4,512h295.2c28,0,52.9-14.7,66.6-39.3
	C451.9,448,451.2,419,436.3,395.1z M176,167.8V16h96v151.8L369.3,320H78.7L176,167.8z M424.2,464.1c-10.8,20.3-30.5,31.9-52.6,31.9
	H76.4c-22.2,0-41.8-11.6-52.6-31c-10.9-19.5-10.3-42.5,1.3-61.3L68.5,336h311.1l43.2,67.6C434.5,422.5,435,445.4,424.2,464.1z"/>
</svg>
