<?xml version="1.0" encoding="utf-8"?>
<!-- Generator: Adobe Illustrator 27.3.1, SVG Export Plug-In . SVG Version: 6.00 Build 0)  -->
<svg version="1.1" id="Layer_1" xmlns="http://www.w3.org/2000/svg" xmlns:xlink="http://www.w3.org/1999/xlink" x="0px" y="0px"
	 viewBox="0 0 640 512" style="enable-background:new 0 0 640 512;" xml:space="preserve">
<style type="text/css">
	.st0{fill:url(#SVGID_1_);}
</style>
<linearGradient id="SVGID_1_" gradientUnits="userSpaceOnUse" x1="0" y1="255.3934" x2="640" y2="255.3934">
	<stop  offset="0" style="stop-color:#CC98DA"/>
	<stop  offset="1" style="stop-color:#5B6CF9"/>
</linearGradient>
<path class="st0" d="M255.9,64c-32,0-63,11.3-87.5,31.9L144,116.4v20.9l34.7-29.2C200.3,90,227.7,80,255.9,80h21.2L294,64H255.9z
	 M112,336V144v-16h-8h-8H32c-17.7,0-32,14.3-32,32v208c0,17.7,14.3,32,32,32h48c17.7,0,32-14.3,32-32v-16h3.4
	c12.7,0,24.9,5.1,33.9,14.1l20.6,20.6l15.4,15.4l0.1,0.1l24.4,24.4c22.1,22.1,57.5,23.1,80.8,2.2c1.2-1.1,2.3-2.2,3.4-3.3l4.8,4.8
	c22.9,22.9,60.3,21.8,81.9-2.4c7.9-8.8,12.4-19.5,13.8-30.4c20.2,10.8,45.6,8.4,63.6-7.5c11.4-10.1,17.7-23.8,18.6-37.9H528v16
	c0,17.7,14.3,32,32,32h48c17.7,0,32-14.3,32-32V160c0-17.7-14.3-32-32-32h-64h-8h-8v16v192h-52.6c-2.2-10.1-7.2-19.6-15.1-27.5
	L360.8,209l14.2-13.1c3.2-3,3.4-8.1,0.5-11.3s-8.1-3.4-11.3-0.5l-76,70.2c-16.3,15-41.3,15.3-57.8,0.5c-18.9-16.8-19.3-46.1-1-63.5
	l87.5-82.9c19.3-18.3,45-28.5,71.6-28.5c24.5,0,48.2,8.6,67,24.4l40.5,34.2v-20.9l-30.2-25.4C444.1,74,416.7,64,388.5,64
	c-30.7,0-60.3,11.8-82.6,32.9l-87.5,82.9c-25.1,23.8-24.5,64,1.4,87c22.7,20.2,57,19.9,79.3-0.7l50.1-46.2l99.8,99.9
	c16.3,16.3,15.5,42.8-1.7,58.1c-15.8,14-39.8,13.3-54.8-1.6l-1-1c-2.5-2.5-6.3-3.1-9.4-1.4s-4.8,5.2-4.1,8.6
	c2.4,12-0.7,24.9-9.4,34.7c-15.4,17.3-42.2,18.1-58.6,1.7l-11.1-11.1c-1.7-1.7-4-2.5-6.4-2.3s-4.5,1.5-5.9,3.5
	c-1.9,2.8-4.2,5.4-6.9,7.8c-16.9,15.1-42.7,14.4-58.8-1.6L181,375.3l-20.6-20.6c-12-12-28.3-18.7-45.3-18.7H112z M96,144v224
	c0,8.8-7.2,16-16,16H32c-8.8,0-16-7.2-16-16V160c0-8.8,7.2-16,16-16H96z M608,144c8.8,0,16,7.2,16,16v208c0,8.8-7.2,16-16,16h-48
	c-8.8,0-16-7.2-16-16V144H608z"/>
</svg>
