<?xml version="1.0" encoding="utf-8"?>
<!-- Generator: Adobe Illustrator 27.3.1, SVG Export Plug-In . SVG Version: 6.00 Build 0)  -->
<svg version="1.1" id="Layer_1" xmlns="http://www.w3.org/2000/svg" xmlns:xlink="http://www.w3.org/1999/xlink" x="0px" y="0px"
	 viewBox="0 0 512 512" style="enable-background:new 0 0 512 512;" xml:space="preserve">
<style type="text/css">
	.st0{fill:url(#SVGID_1_);}
</style>
<linearGradient id="SVGID_1_" gradientUnits="userSpaceOnUse" x1="0" y1="256" x2="512.0004" y2="256">
	<stop  offset="0" style="stop-color:#CC98DA"/>
	<stop  offset="1" style="stop-color:#5B6CF9"/>
</linearGradient>
<path class="st0" d="M484.6,330.6L484.6,330.6l-101.8-43.7c-18.5-7.7-40.2-2.4-52.8,13.1l-33.1,40.5
	c-52.7-28.7-96.6-72.6-125.3-125.3l40.5-33.2c15.7-12.9,20.8-34.2,12.8-52.8L181.4,27.4c-8.7-20.1-30.6-31.1-51.8-26.2L35.2,23.1
	C14.5,27.8,0,45.9,0,67.1C0,312.4,199.6,512,444.9,512c21.2,0,39.4-14.4,44.2-35.1l21.8-94.5C515.7,361.1,504.7,339.3,484.6,330.6z
	 M457.9,469.7c-1.4,6-6.8,10.3-13,10.3C217.2,480,32,294.8,32,67.1c0-6.2,4.2-11.5,10.3-12.9l94.4-21.9c1-0.2,2-0.3,3-0.3
	c5.2,0,10.1,3.1,12.2,8l43.6,101.7c2.3,5.5,0.8,11.8-3.8,15.6l-50.5,41.4c-5.7,4.7-7.5,12.7-4.2,19.4
	C170.5,285.9,226.2,341.6,294,375c6.6,3.3,14.7,1.5,19.4-4.2l41.4-50.5c3.7-4.6,10.2-6.1,15.5-3.8L471.9,360c5.9,2.6,9.2,9,7.7,15.2
	L457.9,469.7z"/>
</svg>
