<?xml version="1.0" encoding="utf-8"?>
<!-- Generator: Adobe Illustrator 27.3.1, SVG Export Plug-In . SVG Version: 6.00 Build 0)  -->
<svg version="1.1" id="Layer_1" xmlns="http://www.w3.org/2000/svg" xmlns:xlink="http://www.w3.org/1999/xlink" x="0px" y="0px"
	 viewBox="0 0 512 512" style="enable-background:new 0 0 512 512;" xml:space="preserve">
<style type="text/css">
	.st0{fill:url(#SVGID_1_);}
</style>
<linearGradient id="SVGID_1_" gradientUnits="userSpaceOnUse" x1="0" y1="256" x2="512" y2="256">
	<stop  offset="0" style="stop-color:#CC98DA"/>
	<stop  offset="1" style="stop-color:#5B6CF9"/>
</linearGradient>
<path class="st0" d="M464,288H48c-26.4,0-48,21.6-48,48v96c0,26.4,21.6,48,48,48h416c26.4,0,48-21.6,48-48v-96
	C512,309.6,490.4,288,464,288z M496,432c0,17.6-14.4,32-32,32H48c-17.6,0-32-14.4-32-32v-96c0-17.6,14.4-32,32-32h416
	c17.6,0,32,14.4,32,32V432z M464,32H48C21.6,32,0,53.6,0,80v96c0,26.4,21.6,48,48,48h416c26.4,0,48-21.6,48-48V80
	C512,53.6,490.4,32,464,32z M496,176c0,17.6-14.4,32-32,32H48c-17.6,0-32-14.4-32-32V80c0-17.6,14.4-32,32-32h416
	c17.6,0,32,14.4,32,32V176z M352,112c-8.8,0-16,7.2-16,16s7.2,16,16,16c8.8,0,16-7.2,16-16S360.8,112,352,112z M416,112
	c-8.8,0-16,7.2-16,16s7.2,16,16,16c8.8,0,16-7.2,16-16S424.8,112,416,112z M352,368c-8.8,0-16,7.2-16,16c0,8.8,7.2,16,16,16
	c8.8,0,16-7.2,16-16C368,375.2,360.8,368,352,368z M416,368c-8.8,0-16,7.2-16,16c0,8.8,7.2,16,16,16c8.8,0,16-7.2,16-16
	C432,375.2,424.8,368,416,368z"/>
</svg>
